<?xml version="1.0" encoding="utf-8"?>
<!-- Generator: Adobe Illustrator 23.0.3, SVG Export Plug-In . SVG Version: 6.00 Build 0)  -->
<svg version="1.1"
	 id="svg2" xmlns:cc="http://creativecommons.org/ns#" xmlns:dc="http://purl.org/dc/elements/1.1/" xmlns:rdf="http://www.w3.org/1999/02/22-rdf-syntax-ns#" xmlns:svg="http://www.w3.org/2000/svg"
	 xmlns="http://www.w3.org/2000/svg" xmlns:xlink="http://www.w3.org/1999/xlink" x="0px" y="0px" viewBox="0 0 1008 273.6"
	 style="enable-background:new 0 0 1008 273.6;" xml:space="preserve">
<style type="text/css">
	.st0{fill:#005494;}
	.st1{fill:#FFFFFF;}
	.st2{clip-path:url(#SVGID_2_);}
	.st3{fill:none;stroke:#FFFFFF;stroke-width:2.34;stroke-linecap:round;stroke-miterlimit:10;}
	.st4{fill:#E7B809;}
	.st5{fill:#D68724;}
	.st6{fill:#9FC9EB;}
	.st7{fill:#5AA3D2;}
	.st8{clip-path:url(#SVGID_4_);}
	.st9{fill:#9BA43B;}
	.st10{fill:none;stroke:#003D71;stroke-width:5.94;stroke-miterlimit:10;}
	.st11{fill:#009C48;}
	.st12{fill:none;stroke:#003D71;stroke-width:1.534;stroke-miterlimit:10;}
	.st13{fill:none;stroke:#003D71;stroke-width:0.562;stroke-miterlimit:10;}
	.st14{fill:#193F70;}
</style>
<g>
	<g>
		<g id="g14">
			<g id="g20" transform="translate(526.4434,297.1125)">
				<path id="path22" class="st0" d="M-323.6-150.1c-5,51.6-50.8,89.3-102.4,84.3s-89.3-50.8-84.3-102.4
					c5-51.6,50.8-89.3,102.4-84.3C-356.4-247.4-318.6-201.6-323.6-150.1"/>
			</g>
		</g>
		<g id="g24" transform="translate(197.5752,487.1282)">
			<path id="path26" class="st1" d="M-135.1-421.2l0.3-0.7l-0.4-0.6h0.7l0.4-0.6l0.2,0.7l0.7,0.2l-0.6,0.4v0.7l-0.6-0.4
				L-135.1-421.2z"/>
		</g>
		<g id="g28" transform="translate(150.8076,444.1057)">
			<path id="path30" class="st1" d="M-108.3-359.8l0.2-1l-0.7-0.7l1-0.1l0.5-0.8l0.4,0.9l1,0.2l-0.8,0.7l0.1,1l-0.8-0.5
				L-108.3-359.8z"/>
		</g>
		<g id="g32" transform="translate(179.4058,484.5564)">
			<path id="path34" class="st1" d="M-124.6-417.5l-0.1-0.7l-0.6-0.4l0.7-0.3l0.1-0.7l0.5,0.5l0.7-0.1l-0.4,0.6l0.3,0.7l-0.7-0.1
				L-124.6-417.5z"/>
		</g>
		<g id="g36" transform="translate(451.084,462.8025)">
			<path id="path38" class="st1" d="M-280.4-386.5l-0.3-1l-0.9-0.4l0.8-0.5v-1l0.8,0.6l1-0.3l-0.4,0.9l0.6,0.8h-1L-280.4-386.5z"/>
		</g>
		<g id="g40" transform="translate(413.7881,469.4832)">
			<path id="path42" class="st1" d="M-259-396l-0.3-1l-0.9-0.4l0.8-0.5v-1l0.8,0.6l1-0.3l-0.4,0.9l0.6,0.8h-1L-259-396z"/>
		</g>
		<g id="g44" transform="translate(373.7373,456.9177)">
			<path id="path46" class="st1" d="M-236-378.1l-0.3-1l-0.9-0.4l0.8-0.5v-1l0.8,0.6l1-0.3l-0.4,0.9l0.6,0.8h-1L-236-378.1z"/>
		</g>
		<g id="g48" transform="translate(432.4004,458.3557)">
			<path id="path50" class="st1" d="M-269.7-380.2l0.3-0.7l-0.4-0.6h0.8l0.4-0.6l0.2,0.7l0.7,0.2l-0.6,0.4v0.8l-0.6-0.4
				L-269.7-380.2z"/>
		</g>
		<g id="g52" transform="translate(418.9629,488.7937)">
			<path id="path54" class="st1" d="M-262-423.6l0.3-0.7l-0.4-0.6h0.8l0.4-0.6l0.2,0.7l0.7,0.2l-0.6,0.4v0.8l-0.6-0.4L-262-423.6z"
				/>
		</g>
		<g id="g56" transform="translate(157.4131,465.5862)">
			<path id="path58" class="st1" d="M-112.1-390.4l0.3-0.7l-0.4-0.6h0.8l0.4-0.6l0.2,0.7l0.7,0.2l-0.6,0.4v0.8l-0.6-0.4
				L-112.1-390.4z"/>
		</g>
		<g id="g60" transform="translate(373.7363,421.3308)">
			<path id="path62" class="st1" d="M-236-327.3l0.3-0.7l-0.4-0.6h0.8l0.4-0.6l0.2,0.7l0.7,0.2l-0.6,0.4v0.8l-0.6-0.4L-236-327.3z"
				/>
		</g>
		<g id="g64" transform="translate(350.9248,454.0198)">
			<path id="path66" class="st1" d="M-223-374l0.3-0.7l-0.4-0.6h0.8l0.4-0.6l0.2,0.7l0.7,0.2l-0.6,0.4v0.8l-0.6-0.4L-223-374z"/>
		</g>
		<g id="g68" transform="translate(398.9248,431.0198)">
			<path id="path70" class="st1" d="M-250.5-341.1l0.3-0.7l-0.4-0.6h0.8l0.4-0.6l0.2,0.7l0.7,0.2l-0.6,0.4v0.8l-0.6-0.4
				L-250.5-341.1z"/>
		</g>
		<g id="g72" transform="translate(434.7236,436.7273)">
			<path id="path74" class="st1" d="M-271.1-349.3l0.3-0.7l-0.4-0.6h0.8l0.4-0.6l0.2,0.7l0.7,0.2l-0.6,0.4v0.8l-0.6-0.4
				L-271.1-349.3z"/>
		</g>
		<g id="g76" transform="translate(390.8105,448.5662)">
			<path id="path78" class="st1" d="M-245.9-366.2l-0.1-0.7l-0.7-0.4l0.7-0.3l0.1-0.7l0.5,0.5l0.7-0.1l-0.4,0.7l0.3,0.7l-0.7-0.1
				L-245.9-366.2z"/>
		</g>
		<g id="g80" transform="translate(474.6748,438.9885)">
			<path id="path82" class="st1" d="M-294-352.5l-0.3-1l-0.9-0.4l0.8-0.5v-1l0.8,0.6l1-0.3l-0.4,0.9l0.6,0.8h-1L-294-352.5z"/>
		</g>
		<g id="g84" transform="translate(211.6592,502.5486)">
			<path id="path86" class="st1" d="M-143.2-443.2l0.2-1l-0.7-0.8l1-0.1l0.5-0.9l0.4,0.9l1,0.2l-0.8,0.7l0.1,1l-0.9-0.5
				L-143.2-443.2z"/>
		</g>
		<g id="g88" transform="translate(362.1367,435.0232)">
			<path id="path90" class="st1" d="M-229.4-346.8l-0.3-1l-0.9-0.4l0.8-0.5v-1l0.8,0.6l1-0.3l-0.4,0.9l0.6,0.8h-1L-229.4-346.8z"/>
		</g>
		<g id="g92" transform="translate(214.25,405.7283)">
			<path id="path94" class="st1" d="M-144.6-305l-0.3-1l-0.9-0.4l0.8-0.5v-1l0.8,0.6l1-0.3l-0.4,0.9l0.6,0.8h-1L-144.6-305z"/>
		</g>
		<g id="g96" transform="translate(171.5615,384.9011)">
			<path id="path98" class="st1" d="M-120.2-275.3l-0.3-1l-0.9-0.4l0.8-0.5v-1l0.8,0.6l1-0.3l-0.4,0.9l0.6,0.8h-1L-120.2-275.3z"/>
		</g>
		<g id="g100" transform="translate(134.3306,434.8264)">
			<path id="path102" class="st1" d="M-98.8-346.5l0.3-0.7l-0.4-0.6h0.8l0.4-0.6l0.2,0.7l0.7,0.2l-0.6,0.4v0.8l-0.6-0.4L-98.8-346.5
				z"/>
		</g>
		<g id="g104" transform="translate(182.2476,368.655)">
			<path id="path106" class="st1" d="M-126.3-252.2v-0.8l-0.6-0.4l0.7-0.3l0.2-0.7l0.4,0.6h0.8l-0.4,0.6l0.3,0.7l-0.7-0.2
				L-126.3-252.2z"/>
		</g>
		<g id="g108" transform="translate(143.1514,378.7952)">
			<path id="path110" class="st1" d="M-103.9-266.6v-0.8l-0.6-0.4l0.7-0.2l0.2-0.7l0.4,0.6h0.8l-0.4,0.6l0.3,0.7l-0.7-0.2
				L-103.9-266.6z"/>
		</g>
		<g id="g112" transform="translate(204.2739,419.8987)">
			<path id="path114" class="st1" d="M-138.9-325.2l0.1-0.4l-0.3-0.4h0.4l0.3-0.4l0.1,0.4l0.4,0.1l-0.4,0.3v0.4l-0.4-0.3
				L-138.9-325.2z"/>
		</g>
		<g id="g116" transform="translate(210.4858,374.0085)">
			<path id="path118" class="st1" d="M-142.5-259.8l0.3-0.7l-0.4-0.6h0.8l0.4-0.6l0.2,0.7l0.7,0.2l-0.6,0.4v0.8l-0.6-0.4
				L-142.5-259.8z"/>
		</g>
		<g id="g120" transform="translate(195.2998,390.1038)">
			<path id="path122" class="st1" d="M-133.8-282.7l0.3-0.7l-0.4-0.6h0.8l0.4-0.6l0.2,0.7l0.7,0.2l-0.6,0.4v0.8l-0.6-0.4
				L-133.8-282.7z"/>
		</g>
		<g id="g124" transform="translate(140.4053,395.1375)">
			<path id="path126" class="st1" d="M-102.3-289.9l0.3-0.7l-0.4-0.6h0.8l0.4-0.6l0.2,0.7l0.7,0.2l-0.6,0.4v0.8l-0.6-0.4
				L-102.3-289.9z"/>
		</g>
		<g id="g128" transform="translate(131.5796,415.3264)">
			<path id="path130" class="st1" d="M-97.3-318.7l0.3-0.7l-0.4-0.6h0.8l0.4-0.6l0.2,0.7l0.7,0.2l-0.6,0.4v0.8l-0.6-0.4L-97.3-318.7
				z"/>
		</g>
		<g id="g132" transform="translate(113.3945,398.1423)">
			<path id="path134" class="st1" d="M-86.8-294.2l0.3-0.7l-0.4-0.6h0.8l0.4-0.6l0.2,0.7l0.7,0.2l-0.6,0.4v0.8l-0.6-0.4L-86.8-294.2
				z"/>
		</g>
		<g id="g136" transform="translate(177.8892,412.8318)">
			<path id="path138" class="st1" d="M-123.8-315.2v-0.8l-0.6-0.4l0.7-0.3l0.2-0.7l0.4,0.6h0.8l-0.4,0.6l0.3,0.7l-0.7-0.2
				L-123.8-315.2z"/>
		</g>
		<g id="g140" transform="translate(109.8066,376.9167)">
			<path id="path142" class="st1" d="M-84.7-263.9l-0.3-1l-0.9-0.4l0.8-0.5v-1l0.8,0.6l1-0.3l-0.4,0.9l0.6,0.8h-1L-84.7-263.9z"/>
		</g>
		<g id="g144" transform="translate(156.6719,414.0818)">
			<path id="path146" class="st1" d="M-111.6-317l-0.3-1l-0.9-0.4l0.8-0.5v-1l0.8,0.6l1-0.3l-0.4,0.9l0.6,0.8h-1L-111.6-317z"/>
		</g>
		<g id="g148" transform="translate(250.2383,404.8767)">
			<path id="path150" class="st1" d="M-165.3-303.8l0.1-0.4l-0.3-0.4h0.4l0.3-0.4l0.1,0.4l0.4,0.1l-0.4,0.3v0.4l-0.4-0.3
				L-165.3-303.8z"/>
		</g>
		<g id="g152" transform="translate(392.7061,470.8284)">
			<path id="path154" class="st1" d="M-246.9-397.9l0.1-0.4l-0.3-0.4h0.4l0.3-0.4l0.1,0.4l0.4,0.1l-0.4,0.3v0.4l-0.4-0.3
				L-246.9-397.9z"/>
		</g>
		<g id="g156" transform="translate(272.1299,516.7332)">
			<path id="path158" class="st1" d="M-177.8-463.4l0.1-0.4l-0.3-0.4h0.4l0.3-0.4l0.1,0.4l0.4,0.1l-0.4,0.3v0.4l-0.4-0.3
				L-177.8-463.4z"/>
		</g>
		<g id="g160" transform="translate(332.5527,441.2849)">
			<path id="path162" class="st1" d="M-212.5-355.8l0.1-0.4l-0.3-0.4h0.4l0.3-0.4l0.1,0.4l0.4,0.1l-0.4,0.3v0.4l-0.4-0.3
				L-212.5-355.8z"/>
		</g>
		<g id="g164" transform="translate(331.7607,423.907)">
			<path id="path166" class="st1" d="M-212-331l0.1-0.4l-0.3-0.4h0.4l0.3-0.4l0.1,0.4l0.4,0.1l-0.4,0.3v0.4l-0.4-0.3L-212-331z"/>
		</g>
		<g id="g168" transform="translate(232.8101,368.9753)">
			<path id="path170" class="st1" d="M-155.3-252.6l0.1-0.4l-0.3-0.4h0.4l0.3-0.4l0.1,0.4l0.4,0.1l-0.4,0.3v0.4l-0.4-0.3
				L-155.3-252.6z"/>
		</g>
		<g id="g172" transform="translate(156.3213,431.2898)">
			<path id="path174" class="st1" d="M-111.5-341.5l0.1-0.4l-0.3-0.4h0.4l0.3-0.4l0.1,0.4l0.4,0.1l-0.4,0.3v0.4l-0.4-0.3
				L-111.5-341.5z"/>
		</g>
		<g id="g176" transform="translate(449.3125,443.9363)">
			<path id="path178" class="st1" d="M-279.5-359.6l0.1-0.4l-0.3-0.4h0.4l0.3-0.4l0.1,0.4l0.4,0.1l-0.4,0.3v0.4l-0.4-0.3
				L-279.5-359.6z"/>
		</g>
		<g id="g180" transform="translate(230.6572,421.6482)">
			<path id="path182" class="st1" d="M-154.1-327.7l0.1-0.4l-0.3-0.4h0.4l0.3-0.4l0.1,0.4l0.4,0.1l-0.4,0.3v0.4l-0.4-0.3
				L-154.1-327.7z"/>
		</g>
		<g id="g184" transform="translate(305.7407,415.7454)">
			<path id="path186" class="st1" d="M-197.1-319.3l0.1-0.4l-0.3-0.4h0.4l0.3-0.4l0.1,0.4l0.4,0.1l-0.4,0.3v0.4l-0.4-0.3
				L-197.1-319.3z"/>
		</g>
		<g id="g188" transform="translate(417.0752,446.3679)">
			<path id="path190" class="st1" d="M-260.9-363l0.1-0.4l-0.3-0.4h0.4l0.3-0.4l0.1,0.4l0.4,0.1l-0.4,0.3v0.4l-0.4-0.3L-260.9-363z"
				/>
		</g>
		<g id="g192" transform="translate(248.7871,517.4675)">
			<path id="path194" class="st1" d="M-164.4-464.5l0.1-0.4l-0.3-0.4h0.4l0.3-0.4l0.1,0.4l0.4,0.1l-0.4,0.3v0.4l-0.4-0.3
				L-164.4-464.5z"/>
		</g>
		<g id="g196" transform="translate(251.3193,375.3215)">
			<path id="path198" class="st1" d="M-165.9-261.6l0.2-1l-0.7-0.8l1-0.1l0.5-0.9l0.4,0.9l1,0.2l-0.8,0.7l0.1,1l-0.9-0.5
				L-165.9-261.6z"/>
		</g>
		<g id="g200" transform="translate(229.8447,393.2249)">
			<path id="path202" class="st1" d="M-153.6-287.2l0.8-0.7l-0.1-1l0.9,0.5l0.9-0.4l-0.2,1l0.7,0.7l-1,0.1l-0.5,0.9l-0.4-0.9
				L-153.6-287.2z"/>
		</g>
		<g id="g204" transform="translate(247.9512,428.1492)">
			<path id="path206" class="st1" d="M-164-337.1l0.3-0.7l-0.4-0.6h0.8l0.4-0.6l0.2,0.7l0.7,0.2l-0.6,0.4v0.8l-0.6-0.4L-164-337.1z"
				/>
		</g>
		<g id="g208" transform="translate(342.1299,523.6819)">
			<path id="path210" class="st1" d="M-218-473.4l-0.3-0.9l-0.9-0.3l0.8-0.5v-1l0.8,0.6l0.9-0.3l-0.4,0.9l0.6,0.8h-1L-218-473.4z"/>
		</g>
		<g id="g212" transform="translate(316.333,527.0481)">
			<path id="path214" class="st1" d="M-203.2-478.1l0.3-0.7l-0.4-0.6h0.7l0.4-0.6l0.2,0.7l0.7,0.2l-0.6,0.4v0.7l-0.6-0.4
				L-203.2-478.1z"/>
		</g>
		<g id="g216" transform="translate(294.3604,507.9163)">
			<path id="path218" class="st1" d="M-190.5-450.9l-0.1-0.7l-0.7-0.3l0.7-0.3l0.1-0.7l0.5,0.5l0.7-0.1l-0.4,0.6l0.4,0.6l-0.7-0.1
				L-190.5-450.9z"/>
		</g>
		<g id="g220" transform="translate(240.5771,504.9299)">
			<path id="path222" class="st1" d="M-159.8-446.5l-0.3-0.9l-0.9-0.3l0.8-0.5v-1l0.8,0.6l0.9-0.3l-0.4,0.9l0.6,0.8h-1L-159.8-446.5
				z"/>
		</g>
		<g id="g224" transform="translate(308.8906,515.8645)">
			<path id="path226" class="st1" d="M-198.9-462.2l0.1-0.4l-0.3-0.4h0.4l0.3-0.4l0.1,0.4l0.4,0.1l-0.4,0.2v0.4l-0.4-0.3
				L-198.9-462.2z"/>
		</g>
		<g id="g228" transform="translate(374.6416,511.9963)">
			<path id="path230" class="st1" d="M-236.6-456.7l0.4-0.9l-0.5-0.9l1,0.1l0.7-0.8l0.2,1l0.9,0.4l-0.9,0.4l-0.1,1l-0.7-0.7
				L-236.6-456.7z"/>
		</g>
		<g id="g232" transform="translate(310.5889,437.3855)">
			<path id="path234" class="st1" d="M-199.9-350.2l-0.3-1l-0.9-0.4l0.8-0.5v-1l0.8,0.6l1-0.3l-0.4,0.9l0.6,0.8h-1L-199.9-350.2z"/>
		</g>
		<g id="g236" transform="translate(382.3516,491.968)">
			<path id="path238" class="st1" d="M-241-428.1l-0.1-0.8l-0.7-0.4l0.7-0.3l0.1-0.7l0.5,0.5l0.7-0.1l-0.4,0.6l0.3,0.7l-0.7-0.2
				L-241-428.1z"/>
		</g>
		<g id="g240" transform="translate(396.8252,500.8606)">
			<path id="path242" class="st1" d="M-249.3-440.7l-0.3-1l-0.9-0.4l0.8-0.5v-1l0.8,0.6l1-0.3l-0.4,0.9l0.6,0.8h-1L-249.3-440.7z"/>
		</g>
		<g id="g244" transform="translate(327.9248,394.5198)">
			<path id="path246" class="st1" d="M-209.8-289.1l0.3-0.7l-0.4-0.6h0.8l0.4-0.6l0.2,0.7l0.7,0.2l-0.6,0.4v0.8l-0.6-0.4
				L-209.8-289.1z"/>
		</g>
		<g>
			<g>
				<defs>
					<rect id="SVGID_1_" x="9.4" y="34.3" width="198.6" height="207"/>
				</defs>
				<clipPath id="SVGID_2_">
					<use xlink:href="#SVGID_1_"  style="overflow:visible;"/>
				</clipPath>
				<g id="g250" class="st2">
					<g id="g256" transform="translate(280.2808,395.8074)">
						<path id="path258" class="st3" d="M-182.5-290.9c2.4,1.5,5.8,0.7,7.3-1.7"/>
					</g>
					<g id="g260" transform="translate(275.9502,388.009)">
						<path id="path262" class="st3" d="M-180-279.8c3.9,2.5,9.8,1.1,12.2-2.9"/>
					</g>
					<g id="g264" transform="translate(274.623,379.8206)">
						<path id="path266" class="st3" d="M-179.2-268.1c4.8,3.1,12,1.3,14.9-3.5"/>
					</g>
					<g id="g268" transform="translate(285.2505,439.9104)">
						<path id="path270" class="st4" d="M-185.4-353.8l-5.3,1.2c-1.2,0.3-2.4-0.5-2.7-1.6l-4.8-20.2c-0.3-1.2,0.5-2.4,1.6-2.7
							l5.3-1.2c1.2-0.3,2.4,0.5,2.7,1.6l4.8,20.2C-183.5-355.3-184.1-354-185.4-353.8"/>
					</g>
					<g id="g272" transform="translate(277.8071,493.6697)">
						<path id="path274" class="st5" d="M-181.1-430.5c-0.4,7.8,3.2,19.7-4.4,23.1c0.5,0.9,1.4,1.3,2.4,1.1l5.3-1.2
							c1.2-0.3,1.9-1.5,1.6-2.7L-181.1-430.5L-181.1-430.5"/>
					</g>
					<g id="g276" transform="translate(279.7832,435.9705)">
						<path id="path278" class="st4" d="M-182.3-348.2c-3.2,0.8-5.2,4-4.8,7.6l12.4-3C-175.8-346.9-179.1-348.9-182.3-348.2"/>
					</g>
					<g id="g280" transform="translate(279.7832,435.9705)">
						<path id="path282" class="st5" d="M-182.3-348.2L-182.3-348.2c2.3,2.4,0.4,5.3-2.3,7l10-2.4
							C-175.8-346.9-179.1-348.9-182.3-348.2"/>
					</g>
					<g id="g284" transform="translate(290.1396,405.4426)">
						<path id="path286" class="st5" d="M-188.2-304.6c0.2,0.7-0.3,1.2-1,1.4c-0.7,0.2-1.4-0.2-1.5-0.9c-0.2-0.7,0.3-1.2,1-1.4
							C-189-305.6-188.4-305.3-188.2-304.6"/>
					</g>
					<g id="g288" transform="translate(280.0181,417.9041)">
						<path id="path290" class="st4" d="M-182.4-322.4l3.2-0.8l0.5,4.2l-2.2,0.5L-182.4-322.4z"/>
					</g>
					<g id="g292" transform="translate(283.5439,418.7463)">
						<path id="path294" class="st5" d="M-184.3-323.6c0.4,1.2,0.3,2.7,0,4.1v0.1l2.2-0.5l-0.5-4.2L-184.3-323.6z"/>
					</g>
					<g id="g296" transform="translate(270.4004,500.1243)">
						<path id="path298" class="st4" d="M-176.9-439.7l-4.7,1.1c-0.5,0.1-0.9-0.2-1.1-0.7l0,0c-0.1-0.5,0.2-0.9,0.7-1.1l4.7-1.1
							c0.5-0.1,0.9,0.2,1.1,0.7l0,0C-176.1-440.3-176.4-439.8-176.9-439.7"/>
					</g>
					<g id="g300" transform="translate(269.4951,503.9548)">
						<path id="path302" class="st5" d="M-176.3-445.2l-2.3,0.5c0.6,0.4,0.8,1,0.6,1.6l2-0.5c0.5-0.1,0.8-0.6,0.7-1.1l0,0
							C-175.4-445-175.9-445.3-176.3-445.2"/>
					</g>
					<g id="g304" transform="translate(180.6133,469.7986)">
						<path id="path306" class="st6" d="M-125.4-396.4l-4.1,1c-0.9,0.2-1.4,1.1-1.2,2l3.2,13.6c0.2,0.9,1.1,1.4,2,1.2l1.3-0.3
							C-121.8-384.1-123.4-390.9-125.4-396.4"/>
					</g>
					<g id="g308" transform="translate(185.625,466.95)">
						<path id="path310" class="st7" d="M-128.3-392.4c-0.2-0.9-1.1-1.4-2-1.2h-0.1c2,5.5,3.5,12.3,1.2,17.5l2.9-0.7
							c0.9-0.2,1.4-1.1,1.2-2L-128.3-392.4z"/>
					</g>
					<g id="g312" transform="translate(202.5435,474.989)">
						<path id="path314" class="st6" d="M-137.9-403.8l-4.1,1c-0.9,0.2-1.4,1.1-1.2,2l3.2,13.6c0.2,0.9,1.1,1.4,2,1.2l1.3-0.3
							C-134.5-391.5-135.9-398.3-137.9-403.8"/>
					</g>
					<g id="g316" transform="translate(207.5552,472.1404)">
						<path id="path318" class="st7" d="M-140.8-399.8c-0.2-0.9-1.1-1.4-2-1.2h-0.1c2,5.5,3.5,12.3,1.2,17.5l2.9-0.7
							c0.9-0.2,1.4-1.1,1.2-2L-140.8-399.8z"/>
					</g>
					<g id="g320" transform="translate(224.4736,480.1799)">
						<path id="path322" class="st6" d="M-150.5-411.2l-4.1,1c-0.9,0.2-1.4,1.1-1.2,2l3.2,13.6c0.2,0.9,1.1,1.4,2,1.2l1.3-0.3
							C-147-399-148.4-405.7-150.5-411.2"/>
					</g>
					<g id="g324" transform="translate(229.4849,477.3313)">
						<path id="path326" class="st7" d="M-153.3-407.2c-0.2-0.9-1.1-1.4-2-1.2h-0.1c2,5.5,3.5,12.3,1.2,17.5l2.9-0.7
							c0.9-0.2,1.4-1.1,1.2-2L-153.3-407.2z"/>
					</g>
					<g id="g328" transform="translate(246.4033,485.3704)">
						<path id="path330" class="st6" d="M-163.1-418.6l-4.1,1c-0.9,0.2-1.4,1.1-1.2,2l3.2,13.6c0.2,0.9,1.1,1.4,2,1.2l1.3-0.3
							C-159.5-406.4-161-413.1-163.1-418.6"/>
					</g>
					<g id="g332" transform="translate(251.415,482.5217)">
						<path id="path334" class="st7" d="M-166-414.6c-0.2-0.9-1.1-1.4-2-1.2h-0.1c2,5.5,3.5,12.3,1.2,17.5l2.9-0.7
							c0.9-0.2,1.4-1.1,1.2-2L-166-414.6z"/>
					</g>
					<g id="g336" transform="translate(296.6909,497.2732)">
						<path id="path338" class="st6" d="M-191.9-435.7l-4.1,1c-0.9,0.2-1.4,1.1-1.2,2l3.2,13.6c0.2,0.9,1.1,1.4,2,1.2l1.3-0.3
							C-188.5-423.4-189.9-430.1-191.9-435.7"/>
					</g>
					<g id="g340" transform="translate(301.7026,494.4246)">
						<path id="path342" class="st7" d="M-194.8-431.5c-0.2-0.9-1.1-1.4-2-1.2h-0.1c2,5.5,3.5,12.3,1.2,17.5l2.9-0.7
							c0.9-0.2,1.4-1.1,1.2-2L-194.8-431.5z"/>
					</g>
					<g id="g344" transform="translate(318.6211,502.4636)">
						<path id="path346" class="st6" d="M-204.4-443.1l-4.1,1c-0.9,0.2-1.4,1.1-1.2,2l3.2,13.6c0.2,0.9,1.1,1.4,2,1.2l1.3-0.3
							C-201-430.8-202.4-437.5-204.4-443.1"/>
					</g>
					<g id="g348" transform="translate(323.6328,499.615)">
						<path id="path350" class="st7" d="M-207.3-438.9c-0.2-0.9-1.1-1.4-2-1.2h-0.1c2,5.5,3.5,12.3,1.2,17.5l2.9-0.7
							c0.9-0.2,1.4-1.1,1.2-2L-207.3-438.9z"/>
					</g>
					<g id="g352" transform="translate(340.5508,507.6545)">
						<path id="path354" class="st6" d="M-217.1-450.5l-4.1,1c-0.9,0.2-1.4,1.1-1.2,2l3.2,13.6c0.2,0.9,1.1,1.4,2,1.2l1.3-0.3
							C-213.5-438.2-215-444.9-217.1-450.5"/>
					</g>
					<g id="g356" transform="translate(345.5625,504.8059)">
						<path id="path358" class="st7" d="M-220-446.4c-0.2-0.9-1.1-1.4-2-1.2h-0.1c2,5.5,3.5,12.3,1.2,17.5l2.9-0.7
							c0.9-0.2,1.4-1.1,1.2-2L-220-446.4z"/>
					</g>
					<g id="g360" transform="translate(362.4814,512.845)">
						<path id="path362" class="st6" d="M-229.6-457.9l-4.1,1c-0.9,0.2-1.4,1.1-1.2,2l3.2,13.6c0.2,0.9,1.1,1.4,2,1.2l1.3-0.3
							C-226.2-445.6-227.6-452.3-229.6-457.9"/>
					</g>
					<g id="g364" transform="translate(367.4932,509.9963)">
						<path id="path366" class="st7" d="M-232.5-453.8c-0.2-0.9-1.1-1.4-2-1.2h-0.1c2,5.5,3.5,12.3,1.2,17.5l2.9-0.7
							c0.9-0.2,1.4-1.1,1.2-2L-232.5-453.8z"/>
					</g>
					<g id="g368" transform="translate(228.7871,490.4675)">
						<path id="path370" class="st1" d="M-152.9-425.9l0.1-0.4l-0.3-0.4h0.4l0.3-0.4l0.1,0.4l0.4,0.1l-0.4,0.3v0.4l-0.4-0.3
							L-152.9-425.9z"/>
					</g>
					<g id="g372" transform="translate(329.7871,515.4675)">
						<path id="path374" class="st1" d="M-210.9-461.6l0.1-0.4l-0.3-0.4h0.4l0.3-0.4l0.1,0.4l0.4,0.1l-0.4,0.3v0.4l-0.4-0.3
							L-210.9-461.6z"/>
					</g>
					<g id="g376" transform="translate(97.1318,328.6375)">
						<path id="path378" class="st1" d="M-77.5-195.1l0.4-0.9l-0.6-0.8h1l0.6-0.8l0.3,1l0.9,0.4l-0.8,0.5v1l-0.8-0.6L-77.5-195.1z"
							/>
					</g>
					<g id="g380" transform="translate(147.1177,358.2771)">
						<path id="path382" class="st1" d="M-106.2-237.4l-0.3-1l-0.9-0.4l0.8-0.5v-1l0.8,0.6l1-0.3l-0.4,0.9l0.6,0.8h-1L-106.2-237.4z
							"/>
					</g>
					<g id="g384" transform="translate(197.75,337.5613)">
						<path id="path386" class="st1" d="M-135.2-207.8l-0.3-1l-0.9-0.4l0.8-0.5v-1l0.8,0.6l1-0.3l-0.4,0.9l0.6,0.8h-1L-135.2-207.8z
							"/>
					</g>
					<g id="g388" transform="translate(210.9653,350.9705)">
						<path id="path390" class="st1" d="M-142.8-226.9l0.4-0.9l-0.6-0.8h1l0.6-0.8l0.3,1l0.9,0.4l-0.8,0.5v1l-0.8-0.6L-142.8-226.9z
							"/>
					</g>
					<g id="g392" transform="translate(247.083,321.5613)">
						<path id="path394" class="st1" d="M-163.5-184.9l-0.3-1l-0.9-0.4l0.8-0.5v-1l0.8,0.6l1-0.3l-0.4,0.9l0.6,0.8h-1L-163.5-184.9z
							"/>
					</g>
					<g id="g396" transform="translate(124.9146,359.9885)">
						<path id="path398" class="st1" d="M-93.4-239.7v-0.8l-0.6-0.4l0.7-0.3l0.2-0.7l0.4,0.6h0.8l-0.4,0.6l0.3,0.7l-0.7-0.2
							L-93.4-239.7z"/>
					</g>
					<g id="g400" transform="translate(118.9048,340.4563)">
						<path id="path402" class="st1" d="M-90-211.9v-0.8l-0.6-0.4l0.7-0.3l0.2-0.7l0.4,0.6h0.8l-0.4,0.6l0.3,0.7l-0.7-0.2L-90-211.9
							z"/>
					</g>
					<g id="g404" transform="translate(172.5811,329.822)">
						<path id="path406" class="st1" d="M-120.8-196.8v-0.8l-0.6-0.4l0.7-0.3l0.2-0.7l0.4,0.6h0.8l-0.4,0.6l0.3,0.7l-0.7-0.2
							L-120.8-196.8z"/>
					</g>
					<g id="g408" transform="translate(162.7476,350.822)">
						<path id="path410" class="st1" d="M-115.1-226.7v-0.8l-0.6-0.4l0.7-0.3l0.2-0.7l0.4,0.6h0.8l-0.4,0.6l0.3,0.7l-0.7-0.2
							L-115.1-226.7z"/>
					</g>
					<g id="g412" transform="translate(101.9766,357.6418)">
						<path id="path414" class="st1" d="M-80.3-236.4l0.1-0.4l-0.3-0.4h0.4l0.3-0.4l0.1,0.4l0.4,0.1l-0.4,0.3v0.4l-0.4-0.3
							L-80.3-236.4z"/>
					</g>
					<g id="g416" transform="translate(144.2383,340.8767)">
						<path id="path418" class="st1" d="M-104.5-212.5l0.1-0.4l-0.3-0.4h0.4l0.3-0.4l0.1,0.4l0.4,0.1l-0.4,0.3v0.4l-0.4-0.3
							L-104.5-212.5z"/>
					</g>
					<g id="g420" transform="translate(186.4766,351.8088)">
						<path id="path422" class="st1" d="M-128.7-228.1l0.1-0.4l-0.3-0.4h0.4l0.3-0.4l0.1,0.4l0.4,0.1l-0.4,0.3v0.4l-0.4-0.3
							L-128.7-228.1z"/>
					</g>
					<g id="g424" transform="translate(213.3003,326.2205)">
						<path id="path426" class="st1" d="M-144.1-191.6l0.4-0.6l-0.3-0.7l0.7,0.2l0.5-0.5v0.8l0.6,0.4l-0.7,0.3l-0.1,0.7l-0.5-0.6
							L-144.1-191.6z"/>
					</g>
					<g id="g428" transform="translate(236.4146,347.822)">
						<path id="path430" class="st1" d="M-157.4-222.4v-0.8l-0.6-0.4l0.7-0.3l0.2-0.7l0.4,0.6h0.8l-0.4,0.6l0.3,0.7l-0.7-0.2
							L-157.4-222.4z"/>
					</g>
					<g id="g432" transform="translate(269.0811,359.322)">
						<path id="path434" class="st1" d="M-176-238.9v-0.8l-0.6-0.4l0.7-0.3l0.2-0.7l0.4,0.6h0.8l-0.4,0.6l0.3,0.7l-0.7-0.2
							L-176-238.9z"/>
					</g>
					<g id="g436" transform="translate(275.2676,330.0305)">
						<path id="path438" class="st1" d="M-179.7-197l0.4-0.6l-0.2-0.7l0.7,0.2l0.6-0.4v0.8l0.6,0.4l-0.7,0.2l-0.2,0.7l-0.4-0.6
							L-179.7-197L-179.7-197z"/>
					</g>
					<g id="g440" transform="translate(258.3101,342.7253)">
						<path id="path442" class="st1" d="M-169.9-215.2l0.1-0.4l-0.3-0.4h0.4l0.3-0.4l0.1,0.4l0.4,0.1l-0.4,0.3v0.4l-0.4-0.3
							L-169.9-215.2z"/>
					</g>
					<g id="g444" transform="translate(325.8047,368.9797)">
						<path id="path446" class="st1" d="M-208.6-252.6l0.2-1l-0.7-0.8l1-0.1l0.5-0.9l0.4,0.9l1,0.2l-0.8,0.7l0.1,1l-0.9-0.5
							L-208.6-252.6z"/>
					</g>
					<g id="g448" transform="translate(325.2646,344.0325)">
						<path id="path450" class="st1" d="M-208.3-217.1l-0.1-1l-0.9-0.4l0.9-0.4l0.2-1l0.7,0.8l1-0.1l-0.5,0.9l0.4,0.9l-1-0.2
							L-208.3-217.1z"/>
					</g>
					<g id="g452" transform="translate(486.5469,413.0339)">
						<path id="path454" class="st1" d="M-300.8-315.5l0.6-0.8l-0.4-0.9l1,0.3l0.8-0.6v1l0.8,0.5l-0.9,0.4l-0.3,1l-0.6-0.8
							L-300.8-315.5z"/>
					</g>
					<g id="g456" transform="translate(303.0396,326.322)">
						<path id="path458" class="st1" d="M-195.5-191.7v-0.8l-0.6-0.4l0.7-0.3l0.2-0.7l0.4,0.6h0.8l-0.4,0.6l0.3,0.7l-0.7-0.2
							L-195.5-191.7z"/>
					</g>
					<g id="g460" transform="translate(284.1646,344.822)">
						<path id="path462" class="st1" d="M-184.7-218.2v-0.8l-0.6-0.4l0.7-0.3l0.2-0.7l0.4,0.6h0.8l-0.4,0.6l0.3,0.7l-0.7-0.2
							L-184.7-218.2z"/>
					</g>
					<g id="g464" transform="translate(442.2197,416.0193)">
						<path id="path466" class="st1" d="M-275.3-319.7v-0.8l-0.6-0.4l0.7-0.3l0.2-0.7l0.4,0.6h0.8l-0.4,0.6l0.3,0.7l-0.7-0.2
							L-275.3-319.7z"/>
					</g>
					<g id="g468" transform="translate(313.9053,354.4563)">
						<path id="path470" class="st1" d="M-201.7-231.9v-0.8l-0.6-0.4l0.7-0.3l0.2-0.7l0.4,0.6h0.8l-0.4,0.6l0.3,0.7l-0.7-0.2
							L-201.7-231.9z"/>
					</g>
					<g id="g472" transform="translate(292.2456,358.9006)">
						<path id="path474" class="st1" d="M-189.4-238.3l0.1-0.4l-0.3-0.4h0.4l0.3-0.4l0.1,0.4l0.4,0.1l-0.4,0.3v0.4l-0.4-0.3
							L-189.4-238.3z"/>
					</g>
					<g id="g476" transform="translate(351.7197,393.0193)">
						<path id="path478" class="st1" d="M-223.5-286.9v-0.8l-0.6-0.4l0.7-0.3l0.2-0.7l0.4,0.6h0.8l-0.4,0.6l0.3,0.7l-0.7-0.2
							L-223.5-286.9z"/>
					</g>
					<g id="g480" transform="translate(415.9648,388.5281)">
						<path id="path482" class="st1" d="M-260.3-280.5v-0.8l-0.6-0.4l0.7-0.3l0.2-0.7l0.4,0.6h0.8l-0.4,0.6l0.3,0.7l-0.7-0.2
							L-260.3-280.5z"/>
					</g>
					<g id="g484" transform="translate(345.9658,361.1536)">
						<path id="path486" class="st1" d="M-220.2-241.4v-0.8l-0.6-0.4l0.7-0.3l0.2-0.7l0.4,0.6h0.8l-0.4,0.6l0.3,0.7l-0.7-0.2
							L-220.2-241.4z"/>
					</g>
					<g id="g488" transform="translate(418.2891,423.572)">
						<path id="path490" class="st1" d="M-261.6-330.5v-0.8l-0.6-0.4l0.7-0.3l0.2-0.7l0.4,0.6h0.8l-0.4,0.6l0.3,0.7l-0.7-0.2
							L-261.6-330.5z"/>
					</g>
					<g id="g492" transform="translate(389.4248,392.0198)">
						<path id="path494" class="st1" d="M-245.1-285.5l0.3-0.7l-0.4-0.6h0.8l0.4-0.6l0.2,0.7l0.7,0.2l-0.6,0.4v0.8l-0.6-0.4
							L-245.1-285.5z"/>
					</g>
					<g id="g496" transform="translate(351.2236,413.2273)">
						<path id="path498" class="st1" d="M-223.2-315.8l0.3-0.7l-0.4-0.6h0.8l0.4-0.6l0.2,0.7l0.7,0.2l-0.6,0.4v0.8l-0.6-0.4
							L-223.2-315.8z"/>
					</g>
					<g id="g500" transform="translate(391.3789,411.7083)">
						<path id="path502" class="st1" d="M-246.2-313.6l0.6-0.8l-0.4-0.9l1,0.3l0.8-0.6v1l0.8,0.5l-0.9,0.4l-0.3,1l-0.6-0.8
							L-246.2-313.6z"/>
					</g>
					<g id="g504" transform="translate(370.2334,364.9407)">
						<path id="path506" class="st1" d="M-234.1-246.8l0.6-0.8l-0.4-0.9l1,0.3l0.8-0.6v1l0.8,0.5l-0.9,0.4l-0.3,1l-0.6-0.8
							L-234.1-246.8z"/>
					</g>
					<g id="g508" transform="translate(417.2266,407.7922)">
						<path id="path510" class="st1" d="M-261-308l0.6-0.8l-0.4-0.9l1,0.3l0.8-0.6v1l0.8,0.5l-0.9,0.4l-0.3,1l-0.6-0.8L-261-308z"/>
					</g>
					<g id="g512" transform="translate(371.707,395.4441)">
						<path id="path514" class="st1" d="M-234.9-290.3l0.1-0.4l-0.3-0.4h0.4l0.3-0.4l0.1,0.4l0.4,0.1l-0.4,0.3v0.4l-0.4-0.3
							L-234.9-290.3z"/>
					</g>
					<g id="g516" transform="translate(357.2852,375.5984)">
						<path id="path518" class="st1" d="M-226.6-262l0.1-0.4l-0.3-0.4h0.4l0.3-0.4l0.1,0.4l0.4,0.1l-0.4,0.3v0.4l-0.4-0.3
							L-226.6-262z"/>
					</g>
					<g id="g520" transform="translate(468.207,422.1941)">
						<path id="path522" class="st1" d="M-290.2-328.5l0.1-0.4l-0.3-0.4h0.4l0.3-0.4l0.1,0.4l0.4,0.1l-0.4,0.3v0.4l-0.4-0.3
							L-290.2-328.5z"/>
					</g>
					<g id="g524" transform="translate(399.0527,379.2849)">
						<path id="path526" class="st1" d="M-250.6-267.4l0.1-0.4l-0.3-0.4h0.4l0.3-0.4l0.1,0.4l0.4,0.1l-0.4,0.3v0.4l-0.4-0.3
							L-250.6-267.4z"/>
					</g>
					<g id="g528" transform="translate(442.2295,387.2537)">
						<path id="path530" class="st1" d="M-275.3-278.7l-0.1-1l-0.9-0.5l0.9-0.4l0.2-1l0.7,0.8l1-0.1l-0.5,0.8l0.4,0.9l-1-0.2
							L-275.3-278.7z"/>
					</g>
					<g id="g532" transform="translate(460.6748,402.2385)">
						<path id="path534" class="st1" d="M-285.9-300.1l-0.3-1l-0.9-0.4l0.8-0.5v-1l0.8,0.6l1-0.3l-0.4,0.9l0.6,0.8h-1L-285.9-300.1z
							"/>
					</g>
					<g id="g536" transform="translate(501.207,389.1941)">
						<path id="path538" class="st1" d="M-309.2-281.5l0.1-0.4l-0.3-0.4h0.4l0.3-0.4l0.1,0.4l0.4,0.1l-0.4,0.3v0.4l-0.4-0.3
							L-309.2-281.5z"/>
					</g>
					<g id="g540" transform="translate(480.2197,393.0193)">
						<path id="path542" class="st1" d="M-297.2-286.9v-0.8l-0.6-0.4l0.7-0.3l0.2-0.7l0.4,0.6h0.8l-0.4,0.6l0.3,0.7l-0.7-0.2
							L-297.2-286.9z"/>
					</g>
					<g id="g544" transform="translate(295.5771,521.9299)">
						<path id="path546" class="st1" d="M-191.3-470.8l-0.3-0.9l-0.9-0.3l0.8-0.5v-1l0.8,0.6l0.9-0.3l-0.4,0.9l0.6,0.8h-1
							L-191.3-470.8z"/>
					</g>
				</g>
			</g>
		</g>
		<g id="g548">
			<g>
				<g>
					<g>
						<defs>
							<path id="SVGID_3_" d="M15.9,128.9c-5,51.6,32.8,97.4,84.3,102.4l0,0c51.6,5,97.4-32.8,102.4-84.3l0,0
								c5-51.6-32.8-97.4-84.3-102.4l0,0c-3.1-0.3-6.1-0.4-9.2-0.4l0,0C61.4,44.2,20.6,80.5,15.9,128.9"/>
						</defs>
						<clipPath id="SVGID_4_">
							<use xlink:href="#SVGID_3_"  style="overflow:visible;"/>
						</clipPath>
						<g id="g550" class="st8">
							<g id="g556" transform="translate(203.6284,316.488)">
								<path id="path558" class="st9" d="M-138.5-177.7c10,1.1,20.1,1.5,30.2,1.1c7.7-0.3,15.6-1,23,1.1c4.4,1.2,8.5,3.3,12.4,5.8
									c20.1,12.7,34.2,33.1,43.4,54.9c2,4.8-155.7,24.6-163.9,18.3c-5.5-4.3-2-67.7,4.2-74.5c5.6-6.1,9.5-8.8,18.3-9.5
									C-160.2-181.1-149.3-179-138.5-177.7"/>
							</g>
							<g id="g560" transform="translate(203.6284,316.488)">
								<path id="path562" class="st10" d="M-138.5-177.7c10,1.1,20.1,1.5,30.2,1.1c7.7-0.3,15.6-1,23,1.1c4.4,1.2,8.5,3.3,12.4,5.8
									c20.1,12.7,34.2,33.1,43.4,54.9c2,4.8-155.7,24.6-163.9,18.3c-5.5-4.3-2-67.7,4.2-74.5c5.6-6.1,9.5-8.8,18.3-9.5
									C-160.2-181.1-149.3-179-138.5-177.7z"/>
							</g>
							<g id="g564" transform="translate(419.6504,372.6272)">
								<path id="path566" class="st11" d="M-262.4-257.8c-14.4,4.5-27.6,12.4-40.6,20.2c-9.4,5.6-18.7,11.3-28.1,17
									c-11.4,6.8-22.8,13.8-35.3,17.9c-12.6,4.1-26.5,5.3-39,0.7c-3.7,7-3.7,15.6-1.2,23.1s7.1,14.2,12.1,20.3
									c13.5,16.3,165.8,17.8,175.1-0.4c9.3-18.1,12.8-38.8,14-59.1c0.5-7.5,0.7-15.3-1.5-22.5C-214.2-264.9-242.4-264-262.4-257.8
									"/>
							</g>
							<g id="g568" transform="translate(419.6504,372.6272)">
								<path id="path570" class="st10" d="M-262.4-257.8c-14.4,4.5-27.6,12.4-40.6,20.2c-9.4,5.6-18.7,11.3-28.1,17
									c-11.4,6.8-22.8,13.8-35.3,17.9c-12.6,4.1-26.5,5.3-39,0.7c-3.7,7-3.7,15.6-1.2,23.1s7.1,14.2,12.1,20.3
									c13.5,16.3,165.8,17.8,175.1-0.4c9.3-18.1,12.8-38.8,14-59.1c0.5-7.5,0.7-15.3-1.5-22.5C-214.2-264.9-242.4-264-262.4-257.8
									z"/>
							</g>
							<g id="g572" transform="translate(575.9453,252.0383)">
								<path id="path574" class="st7" d="M-352-85.8c10.1,26.8-23,64.3-74.1,83.7S-526.9,11.1-537-15.7s23-64.3,74.1-83.7
									S-362.1-112.7-352-85.8"/>
							</g>
							<g id="g576" transform="translate(575.9453,252.0383)">
								<path id="path578" class="st10" d="M-352-85.8c10.1,26.8-23,64.3-74.1,83.7S-526.9,11.1-537-15.7s23-64.3,74.1-83.7
									S-362.1-112.7-352-85.8z"/>
							</g>
						</g>
					</g>
				</g>
			</g>
		</g>
		<g id="g582">
			<g id="g588" transform="translate(462.1387,195.4221)">
				<path id="path590" class="st0" d="M-286.8-5.1c0-2.5-5.3-4.8-13-5.8c2,3.2,3.8,7.1,5.7,10.5C-289.6-1.5-286.8-3.1-286.8-5.1"/>
			</g>
			<g id="g592" transform="translate(350.667,195.4221)">
				<path id="path594" class="st0" d="M-222.9-5.1c0,2.2,3.9,4.1,9.9,5.3c0.9-3.8,1.9-7.4,3-11.1C-217.6-9.7-222.9-7.5-222.9-5.1"/>
			</g>
			<g id="g596" transform="translate(454.1016,194.4934)">
				<path id="path598" class="st7" d="M-282.2-3.7c0,3.2-5.3,5.9-11.7,5.9s-11.7-2.7-11.7-5.8s5.3-5.8,11.7-5.8
					C-287.4-9.5-282.2-6.9-282.2-3.7"/>
			</g>
			<g id="g600" transform="translate(409.8682,194.8879)">
				<path id="path602" class="st7" d="M-256.8-4.3c0,3.1-4.9,5.5-10.9,5.5s-10.9-2.5-10.9-5.5s4.9-5.5,10.9-5.5
					C-261.6-9.8-256.8-7.3-256.8-4.3"/>
			</g>
			<g id="g604" transform="translate(446.333,196.636)">
				<path id="path606" class="st0" d="M-277.7-6.7c0,2.4-7.6,4.4-17.2,4.4c-9.6,0-17.2-2-17.2-4.4s7.6-4.4,17.2-4.4
					C-285.3-11.1-277.7-9.2-277.7-6.7"/>
			</g>
			<g id="g608" transform="translate(442.4971,199.2278)">
				<path id="path610" class="st7" d="M-275.5-10.5c0,1.8-7,3.3-15.5,3.3c-8.6,0-15.5-1.5-15.5-3.3s7-3.3,15.5-3.3
					C-282.5-13.7-275.5-12.3-275.5-10.5"/>
			</g>
			<g id="g612" transform="translate(435.667,202.1702)">
				<path id="path614" class="st0" d="M-271.6-14.6c0,1.4-5.6,2.6-12.6,2.6s-12.6-1.1-12.6-2.6s5.6-2.6,12.6-2.6
					S-271.6-16.1-271.6-14.6"/>
			</g>
			<g id="g616" transform="translate(429.667,323.5784)">
				<path id="path618" class="st1" d="M-268.2-187.9h-20.1v52.2h20.1V-187.9z"/>
			</g>
			<g id="g620" transform="translate(422.9609,311.0051)">
				<path id="path622" class="st12" d="M-264.3-169.9h-14.4"/>
			</g>
			<g id="g624" transform="translate(422.9609,293.2981)">
				<path id="path626" class="st12" d="M-264.3-144.7h-14.4"/>
			</g>
			<g id="g628" transform="translate(422.9609,302.2146)">
				<path id="path630" class="st13" d="M-264.3-157.4h-12.1"/>
			</g>
			<g id="g632" transform="translate(422.9609,275.5911)">
				<path id="path634" class="st12" d="M-264.3-119.3h-14.4"/>
			</g>
			<g id="g636" transform="translate(422.9609,284.5095)">
				<path id="path638" class="st13" d="M-264.3-132.1h-12.1"/>
			</g>
			<g id="g640" transform="translate(422.9609,257.884)">
				<path id="path642" class="st12" d="M-264.3-94.1h-14.4"/>
			</g>
			<g id="g644" transform="translate(422.9609,266.5168)">
				<path id="path646" class="st13" d="M-264.3-106.4h-12.1"/>
			</g>
			<g id="g648" transform="translate(422.9609,240.177)">
				<path id="path650" class="st12" d="M-264.3-68.9h-14.4"/>
			</g>
			<g id="g652" transform="translate(422.9609,249.0999)">
				<path id="path654" class="st13" d="M-264.3-81.6h-12.1"/>
			</g>
			<g id="g656" transform="translate(422.9609,222.47)">
				<path id="path658" class="st12" d="M-264.3-43.6h-14.4"/>
			</g>
			<g id="g660" transform="translate(422.9609,231.3879)">
				<path id="path662" class="st13" d="M-264.3-56.3h-12.1"/>
			</g>
			<g id="g664" transform="translate(422.9609,213.6829)">
				<path id="path666" class="st13" d="M-264.3-31.1h-12.1"/>
			</g>
			<g id="g668" transform="translate(378.8145,202.6682)">
				<path id="path670" class="st0" d="M-239-15.3c0.8-0.4,1.7-0.5,2.6-0.2c0.3,0.1,0.6,0.2,0.9,0.2c0.5,0,1-0.4,1.4-0.4
					c0.7,0,1.2,0.4,1.9,0.4s1.3-0.5,2-0.4c0.5,0,0.9,0.4,1.3,0.4c0.7,0,1.2-0.5,2-0.6c0.7,0,1.3,0.4,2,0.4c0.5,0,1-0.4,1.4-0.3
					c0.3,0.1,0.5,0.3,0.8,0.4c0.6,0.1,1.1-0.4,1.6-0.4c0.4,0,0.8,0.3,1.1,0.4c0.7,0.1,1.3-0.4,2-0.1c0.2,0.1,0.3,0.2,0.5,0.3
					c0.3,0.1,0.6,0,0.9-0.2c0.3-0.1,0.7-0.2,0.9,0.1c0.2,0.2,0.1,0.6-0.1,0.8c-0.2,0.2-0.5,0.3-0.8,0.4c-0.8,0.1-1.5,0.1-2.2,0.1
					c-1.1,0-2.1,0-3.2,0h-5.1c-4,0-7.8,0.2-11.7-0.2C-238.9-14.7-239-15.2-239-15.3c0.2,0,0.4,0,0.5,0"/>
			</g>
		</g>
		<g id="g674">
			<g id="g680" transform="translate(527.3086,318.1028)">
				<path id="path682" class="st10" d="M-324.1-180c0,51.8-42,93.8-93.8,93.8s-93.8-42-93.8-93.8s42-93.8,93.8-93.8
					S-324.1-231.8-324.1-180z"/>
			</g>
		</g>
	</g>
	<g>
		<path class="st14" d="M241.2,78.3h12.5V132h16.5v10.6h-28.9V78.3z"/>
		<path class="st14" d="M294.6,127.9l-2.9,14.7h-12.2l14-64.3h14.9l12.5,64.3h-12.2l-2.8-14.7H294.6z M304.9,118.2l-2.1-13.5
			c-0.7-3.9-1.5-10.3-2.1-14.6h-0.3c-0.7,4.3-1.7,10.9-2.3,14.7l-2.4,13.4C295.7,118.2,304.9,118.2,304.9,118.2z"/>
		<path class="st14" d="M334.2,78.3h12.5v28.8h0.2c1-2.7,2.1-5.5,3.1-8.3l8.6-20.5h13.7l-14.4,28l14.6,36.3H359l-9.4-26.6l-2.9,5.2
			v21.3h-12.5V78.3z"/>
		<path class="st14" d="M411.3,114.4h-14.7v17.3h16.6v10.8h-29.1V78.3h28v10.8h-15.5V104h14.7V114.4z"/>
		<path class="st14" d="M487.2,109.4c0,24.2-8.6,34-20.8,34c-14.6,0-20.3-15.5-20.3-33s7-32.7,21.2-32.7
			C482.8,77.6,487.2,94.7,487.2,109.4z M459.1,110.5c0,14.6,2.8,22,7.8,22c5.2,0,7.3-9.5,7.3-22.6c0-11.3-1.8-21.4-7.3-21.4
			C461.8,88.5,459.1,96.7,459.1,110.5z"/>
		<path class="st14" d="M501.4,79.3c3.9-0.9,8.7-1.2,14.3-1.2c6,0,11.8,0.8,16.4,4.5c3.4,2.9,4.9,7.2,4.9,11.6c0,5.7-3,11.3-9.4,14
			v0.3c7.4,2.1,11.5,8.3,11.5,15.4c0,5.3-1.8,9.4-4.8,12.6c-3.9,4.2-10.3,6.5-21.1,6.5c-4.8,0-8.7-0.3-11.6-0.7V79.3H501.4z
			 M513.9,104.7h2.7c4.5,0,8-3.9,8-9.1c0-4.6-2.2-8.3-7.3-8.3c-1.3,0-2.4,0.1-3.2,0.3v17H513.9z M513.9,133.2
			c0.8,0.2,1.7,0.2,2.8,0.2c5.1,0,9.3-3.1,9.3-9.6c0-6.4-4.4-9.7-9.4-9.8h-2.7V133.2z"/>
		<path class="st14" d="M552.1,129.8c2.5,1.4,7,2.4,10.6,2.4c6,0,8.7-3.1,8.7-7.3c0-4.6-2.9-7-8.3-10.5
			c-8.7-5.3-12.2-12.2-12.2-17.9c0-10.3,6.8-18.9,20.3-18.9c4.2,0,8.2,1.1,10.1,2.3l-2,10.8c-1.8-1.1-4.5-2.2-8.2-2.2
			c-5.3,0-8,3.2-8,6.6c0,3.9,1.9,5.9,8.8,10.1c8.5,5.2,11.6,11.6,11.6,18.5c0,11.7-8.7,19.4-21.2,19.4c-5.2,0-10.2-1.3-12.3-2.5
			L552.1,129.8z"/>
		<path class="st14" d="M624.5,114.4h-14.7v17.3h16.6v10.8h-29.1V78.3h28v10.8h-15.5V104h14.7V114.4z"/>
		<path class="st14" d="M641,79.3c3.9-0.8,8.8-1.2,13.6-1.2c6.8,0,12.9,1,17.1,4.8c3.9,3.5,5.1,7.8,5.1,13.4c0,6.8-3.3,13-9.9,16.1
			v0.2c4.4,1.8,6.6,5.9,7.8,12.7c1.2,7.2,3,15,4.1,17.5h-13c-0.8-1.8-2.2-8.3-3.1-15.4c-1.1-8-3.1-10.3-7.3-10.3h-1.8v25.6h-12.5
			V79.3H641z M653.6,107.4h2.2c5.4,0,8.6-4.4,8.6-10.1c0-5.4-2.2-9.4-7.8-9.5c-1,0-2.3,0.1-3,0.3V107.4z"/>
		<path class="st14" d="M701,142.6l-14.4-64.3h13.8l4.5,27.7c1.1,6.8,2.4,14.8,3.3,22.3h0.2c0.9-7.6,1.9-15.4,3.1-22.6l4.4-27.5
			h13.7L715,142.5h-14V142.6z"/>
		<path class="st14" d="M750.1,127.9l-2.9,14.7H735L749,78.3h14.9l12.5,64.3h-12.2l-2.8-14.7H750.1z M760.5,118.2l-2.1-13.5
			c-0.7-3.9-1.5-10.3-2.1-14.6h-0.3c-0.7,4.3-1.7,10.9-2.3,14.7l-2.4,13.4C751.2,118.2,760.5,118.2,760.5,118.2z"/>
		<path class="st14" d="M791.8,89.9h-11.4V78.3h35.2v11.5h-11.5v52.7h-12.5V89.9H791.8z"/>
		<path class="st14" d="M841.1,78.3v64.3h-12.5V78.3H841.1z"/>
		<path class="st14" d="M896.3,109.4c0,24.2-8.6,34-20.8,34c-14.6,0-20.3-15.5-20.3-33s7-32.7,21.2-32.7
			C891.9,77.6,896.3,94.7,896.3,109.4z M868.3,110.5c0,14.6,2.8,22,7.8,22c5.2,0,7.3-9.5,7.3-22.6c0-11.3-1.8-21.4-7.3-21.4
			C871,88.5,868.3,96.7,868.3,110.5z"/>
		<path class="st14" d="M910.5,142.6V78.3H922l9.9,25.2c1.9,5,5.1,13.3,6.8,18.8h0.2c-0.3-6.7-1.2-17.9-1.2-29.7V78.3h10.9v64.3
			h-11.5l-9.8-24.4c-2.1-5.4-5.1-13.6-6.5-19.3h-0.2c0.3,6.5,0.8,16.4,0.8,29.3v14.5L910.5,142.6L910.5,142.6z"/>
		<path class="st14" d="M964.4,129.8c2.5,1.4,7,2.4,10.6,2.4c6,0,8.7-3.1,8.7-7.3c0-4.6-2.9-7-8.3-10.5
			c-8.7-5.3-12.2-12.2-12.2-17.9c0-10.3,6.8-18.9,20.3-18.9c4.2,0,8.2,1.1,10.1,2.3l-2,10.8c-1.8-1.1-4.5-2.2-8.2-2.2
			c-5.3,0-8,3.2-8,6.6c0,3.9,1.9,5.9,8.8,10.1c8.5,5.2,11.6,11.6,11.6,18.5c0,11.7-8.7,19.4-21.2,19.4c-5.2,0-10.2-1.3-12.3-2.5
			L964.4,129.8z"/>
		<path class="st14" d="M238.9,168.9c1.7-0.3,4.2-0.6,6.8-0.6c3.8,0,6.2,0.7,8,2.1c1.5,1.1,2.4,2.9,2.4,5.1c0,2.8-1.9,5.2-4.9,6.3
			v0.1c2.8,0.7,6,3,6,7.3c0,2.5-1,4.4-2.4,5.7c-2,1.9-5.3,2.7-9.9,2.7c-2.5,0-4.5-0.2-5.7-0.3v-28.4H238.9z M242.6,180.8h3.4
			c4,0,6.3-2.1,6.3-4.9c0-3.4-2.5-4.8-6.3-4.8c-1.8,0-2.7,0.1-3.3,0.2v9.4H242.6z M242.6,194.6c0.8,0.1,1.8,0.2,3.1,0.2
			c3.9,0,7.4-1.4,7.4-5.6c0-4-3.4-5.5-7.5-5.5h-3.1v10.9H242.6z"/>
		<path class="st14" d="M271.1,197.4v-12.3l-9.2-16.7h4.2l4.1,8c1.1,2.2,2,4,2.9,6h0.1c0.8-1.9,1.8-3.8,2.9-6l4.2-8h4.2l-9.7,16.6
			v12.3h-3.6V197.4z"/>
		<path class="st14" d="M323.7,196.4c-1.3,0.7-4.1,1.3-7.6,1.3c-8.2,0-14.3-5.2-14.3-14.6c0-9.1,6.2-15.1,15.1-15.1
			c3.6,0,5.9,0.8,6.8,1.3l-0.9,3.1c-1.4-0.7-3.4-1.2-5.9-1.2c-6.7,0-11.3,4.3-11.3,11.9c0,7.1,4.1,11.6,11.2,11.6
			c2.3,0,4.6-0.4,6.1-1.2L323.7,196.4z"/>
		<path class="st14" d="M335.3,168.5v28.9h-3.8v-28.9H335.3z"/>
		<path class="st14" d="M350.6,171.7h-8.8v-3.2h21.4v3.2h-8.8v25.7h-3.8V171.7z"/>
		<path class="st14" d="M373.3,168.5v28.9h-3.8v-28.9H373.3z"/>
		<path class="st14" d="M381.1,195.2l16-23.4v-0.1h-14.7v-3.1h19.6v2.3L386,194.3v0.1h16.1v3.1h-21.1L381.1,195.2L381.1,195.2z"/>
		<path class="st14" d="M424.9,183.8h-11.3v10.4h12.5v3.1h-16.2v-28.9h15.6v3.1h-11.9v9.2h11.3v3.2H424.9z"/>
		<path class="st14" d="M434.3,197.4v-28.9h4.1l9.3,14.6c2.1,3.4,3.9,6.4,5.2,9.4h0.1c-0.3-3.9-0.4-7.4-0.4-11.9v-12.2h3.5v28.9
			h-3.9l-9.2-14.7c-2-3.2-4-6.5-5.4-9.6h-0.1c0.2,3.6,0.3,7.1,0.3,11.9v12.4h-3.5V197.4z"/>
		<path class="st14" d="M477.5,192.9c1.7,1,4.1,1.9,6.7,1.9c3.9,0,6.1-2,6.1-5c0-2.7-1.5-4.2-5.4-5.7c-4.8-1.7-7.6-4.1-7.6-8.2
			c0-4.5,3.8-7.8,9.4-7.8c3,0,5.1,0.7,6.4,1.4l-1,3.1c-1-0.6-2.9-1.3-5.5-1.3c-4,0-5.4,2.3-5.4,4.3c0,2.7,1.8,4.1,5.7,5.5
			c4.9,1.9,7.4,4.2,7.4,8.5c0,4.4-3.3,8.3-10.2,8.3c-2.8,0-5.9-0.8-7.4-1.9L477.5,192.9z"/>
		<path class="st14" d="M522.6,196.4c-1.3,0.7-4.1,1.3-7.6,1.3c-8.2,0-14.3-5.2-14.3-14.6c0-9.1,6.2-15.1,15.1-15.1
			c3.6,0,5.9,0.8,6.8,1.3l-0.9,3.1c-1.4-0.7-3.4-1.2-5.9-1.2c-6.7,0-11.3,4.3-11.3,11.9c0,7.1,4.1,11.6,11.2,11.6
			c2.3,0,4.6-0.4,6.1-1.2L522.6,196.4z"/>
		<path class="st14" d="M534.3,168.5v28.9h-3.8v-28.9H534.3z"/>
		<path class="st14" d="M558.9,183.8h-11.3v10.4h12.5v3.1h-16.2v-28.9h15.6v3.1h-11.9v9.2h11.3v3.2H558.9z"/>
		<path class="st14" d="M568.3,197.4v-28.9h4.1l9.3,14.6c2.1,3.4,3.9,6.4,5.2,9.4h0.1c-0.3-3.9-0.4-7.4-0.4-11.9v-12.2h3.5v28.9
			h-3.8l-9.2-14.7c-2-3.2-4-6.5-5.4-9.6h-0.1c0.2,3.6,0.3,7.1,0.3,11.9v12.4h-3.6V197.4z"/>
		<path class="st14" d="M605.2,171.7h-8.8v-3.2h21.4v3.2H609v25.7h-3.8V171.7z"/>
		<path class="st14" d="M628,168.5v28.9h-3.8v-28.9H628z"/>
		<path class="st14" d="M637.3,192.9c1.7,1,4.1,1.9,6.7,1.9c3.9,0,6.1-2,6.1-5c0-2.7-1.5-4.2-5.4-5.7c-4.8-1.7-7.6-4.1-7.6-8.2
			c0-4.5,3.8-7.8,9.4-7.8c3,0,5.1,0.7,6.4,1.4l-1,3.1c-1-0.6-2.9-1.3-5.5-1.3c-4,0-5.4,2.3-5.4,4.3c0,2.7,1.8,4.1,5.7,5.5
			c4.9,1.9,7.4,4.2,7.4,8.5c0,4.4-3.3,8.3-10.2,8.3c-2.8,0-5.9-0.8-7.4-1.9L637.3,192.9z"/>
		<path class="st14" d="M667.6,171.7h-8.8v-3.2h21.4v3.2h-8.8v25.7h-3.8V171.7z"/>
		<path class="st14" d="M685.9,192.9c1.7,1,4.1,1.9,6.7,1.9c3.9,0,6.1-2,6.1-5c0-2.7-1.5-4.2-5.4-5.7c-4.8-1.7-7.6-4.1-7.6-8.2
			c0-4.5,3.8-7.8,9.4-7.8c3,0,5.1,0.7,6.4,1.4l-1,3.1c-1-0.6-2.9-1.3-5.5-1.3c-4,0-5.4,2.3-5.4,4.3c0,2.7,1.8,4.1,5.7,5.5
			c4.9,1.9,7.4,4.2,7.4,8.5c0,4.4-3.3,8.3-10.2,8.3c-2.8,0-5.9-0.8-7.4-1.9L685.9,192.9z"/>
		<path class="st14" d="M741.2,197.4c-0.8-0.8-1.5-1.7-2.7-2.9c-2.5,2.3-5.3,3.3-8.5,3.3c-5.6,0-8.8-3.8-8.8-8.1
			c0-4,2.3-6.6,5.6-8.5v-0.1c-1.5-1.9-2.4-4-2.4-6.1c0-3.5,2.5-7.1,7.3-7.1c3.6,0,6.4,2.4,6.4,6.2c0,3.1-1.8,5.4-6.3,7.7v0.1
			c2.4,2.9,5.2,6,7.1,8.1c1.3-2,2.2-4.8,2.8-8.5h3.4c-0.8,4.5-2,8.2-4.2,10.7c1.5,1.7,3.1,3.3,4.8,5.1L741.2,197.4L741.2,197.4z
			 M736.7,192.5c-1.8-1.9-5-5.4-8.2-9.1c-1.5,1-3.8,2.9-3.8,5.9c0,3.3,2.4,5.9,6,5.9C733.2,195.1,735.3,193.9,736.7,192.5z
			 M727.9,174.8c0,2.1,1,3.6,2.2,5.2c2.9-1.7,4.8-3.2,4.8-5.6c0-1.8-1-3.8-3.3-3.8C729.1,170.6,727.9,172.6,727.9,174.8z"/>
		<path class="st14" d="M764.1,192.9c1.7,1,4.1,1.9,6.7,1.9c3.9,0,6.1-2,6.1-5c0-2.7-1.5-4.2-5.4-5.7c-4.8-1.7-7.6-4.1-7.6-8.2
			c0-4.5,3.8-7.8,9.4-7.8c3,0,5.1,0.7,6.4,1.4l-1,3.1c-1-0.6-2.9-1.3-5.5-1.3c-4,0-5.4,2.3-5.4,4.3c0,2.7,1.8,4.1,5.7,5.5
			c4.9,1.9,7.4,4.2,7.4,8.5c0,4.4-3.3,8.3-10.2,8.3c-2.8,0-5.9-0.8-7.4-1.9L764.1,192.9z"/>
		<path class="st14" d="M793.6,188.4l-3,9.1h-3.9l9.8-28.9h4.5l9.8,28.9h-4l-3.1-9.1H793.6z M803.1,185.4l-2.9-8.3
			c-0.7-1.9-1.1-3.6-1.5-5.3h-0.1c-0.4,1.8-0.9,3.4-1.4,5.2l-2.9,8.4H803.1z"/>
		<path class="st14" d="M820.6,171.7h-8.8v-3.2h21.4v3.2h-8.8v25.7h-3.8V171.7z"/>
		<path class="st14" d="M854.6,183.8h-11.3v10.4h12.5v3.1h-16.2v-28.9h15.6v3.1h-11.9v9.2h11.3v3.2H854.6z"/>
		<path class="st14" d="M864,168.5h3.8v25.9h12.4v3.1H864L864,168.5L864,168.5z"/>
		<path class="st14" d="M887.4,168.5h3.8v25.9h12.4v3.1h-16.1L887.4,168.5L887.4,168.5z"/>
		<path class="st14" d="M914.6,168.5v28.9h-3.8v-28.9H914.6z"/>
		<path class="st14" d="M929.8,171.7H921v-3.2h21.4v3.2h-8.8v25.7h-3.8V171.7z"/>
		<path class="st14" d="M963.8,183.8h-11.3v10.4h12.5v3.1h-16.2v-28.9h15.6v3.1h-11.9v9.2h11.3v3.2H963.8z"/>
		<path class="st14" d="M972.7,192.9c1.7,1,4.1,1.9,6.7,1.9c3.9,0,6.1-2,6.1-5c0-2.7-1.5-4.2-5.4-5.7c-4.8-1.7-7.6-4.1-7.6-8.2
			c0-4.5,3.8-7.8,9.4-7.8c3,0,5.1,0.7,6.4,1.4l-1,3.1c-1-0.6-2.9-1.3-5.5-1.3c-4,0-5.4,2.3-5.4,4.3c0,2.7,1.8,4.1,5.7,5.5
			c4.9,1.9,7.4,4.2,7.4,8.5c0,4.4-3.3,8.3-10.2,8.3c-2.8,0-5.9-0.8-7.4-1.9L972.7,192.9z"/>
	</g>
</g>
</svg>
